<mxfile host="app.diagrams.net" modified="2024-02-08T13:34:47.037Z" agent="Mozilla/5.0 (Windows NT 10.0; Win64; x64) AppleWebKit/537.36 (KHTML, like Gecko) Chrome/120.0.0.0 Safari/537.36" etag="Y7xO8n3yle6KrhPo9q8Y" version="23.1.2" type="github">
  <diagram name="Page-1" id="MwYlZTWjcGxwbNQAv1zu">
    <mxGraphModel dx="880" dy="460" grid="1" gridSize="10" guides="1" tooltips="1" connect="1" arrows="1" fold="1" page="1" pageScale="1" pageWidth="850" pageHeight="1100" math="0" shadow="0">
      <root>
        <mxCell id="0" />
        <mxCell id="1" parent="0" />
        <mxCell id="i-MgTbN1lz1c-PTe-RDw-2" value="Pengunjung" style="shape=umlActor;verticalLabelPosition=bottom;verticalAlign=top;html=1;outlineConnect=0;" vertex="1" parent="1">
          <mxGeometry x="50" y="210" width="60" height="120" as="geometry" />
        </mxCell>
        <mxCell id="i-MgTbN1lz1c-PTe-RDw-4" value="" style="rounded=0;whiteSpace=wrap;html=1;" vertex="1" parent="1">
          <mxGeometry x="272.5" y="70" width="250" height="460" as="geometry" />
        </mxCell>
        <mxCell id="i-MgTbN1lz1c-PTe-RDw-5" value="Perpus Digital" style="text;html=1;strokeColor=none;fillColor=none;align=center;verticalAlign=middle;whiteSpace=wrap;rounded=0;" vertex="1" parent="1">
          <mxGeometry x="347.5" y="90" width="95" height="30" as="geometry" />
        </mxCell>
        <mxCell id="i-MgTbN1lz1c-PTe-RDw-6" value="" style="ellipse;whiteSpace=wrap;html=1;" vertex="1" parent="1">
          <mxGeometry x="335" y="130" width="120" height="80" as="geometry" />
        </mxCell>
        <mxCell id="i-MgTbN1lz1c-PTe-RDw-7" value="Form Pengunjung" style="text;html=1;strokeColor=none;fillColor=none;align=center;verticalAlign=middle;whiteSpace=wrap;rounded=0;" vertex="1" parent="1">
          <mxGeometry x="337.5" y="155" width="115" height="30" as="geometry" />
        </mxCell>
        <mxCell id="i-MgTbN1lz1c-PTe-RDw-12" value="" style="ellipse;whiteSpace=wrap;html=1;" vertex="1" parent="1">
          <mxGeometry x="332.5" y="230" width="120" height="80" as="geometry" />
        </mxCell>
        <mxCell id="i-MgTbN1lz1c-PTe-RDw-13" value="" style="ellipse;whiteSpace=wrap;html=1;" vertex="1" parent="1">
          <mxGeometry x="337.5" y="330" width="120" height="80" as="geometry" />
        </mxCell>
        <mxCell id="i-MgTbN1lz1c-PTe-RDw-14" value="" style="ellipse;whiteSpace=wrap;html=1;" vertex="1" parent="1">
          <mxGeometry x="337.5" y="430" width="120" height="80" as="geometry" />
        </mxCell>
        <mxCell id="i-MgTbN1lz1c-PTe-RDw-25" value="Pencarian Buku" style="text;html=1;strokeColor=none;fillColor=none;align=center;verticalAlign=middle;whiteSpace=wrap;rounded=0;" vertex="1" parent="1">
          <mxGeometry x="347.5" y="255" width="95" height="30" as="geometry" />
        </mxCell>
        <mxCell id="i-MgTbN1lz1c-PTe-RDw-26" value="Detail Buku" style="text;html=1;strokeColor=none;fillColor=none;align=center;verticalAlign=middle;whiteSpace=wrap;rounded=0;" vertex="1" parent="1">
          <mxGeometry x="357.5" y="355" width="80" height="30" as="geometry" />
        </mxCell>
        <mxCell id="i-MgTbN1lz1c-PTe-RDw-30" value="Laporan Statistik" style="text;html=1;strokeColor=none;fillColor=none;align=center;verticalAlign=middle;whiteSpace=wrap;rounded=0;" vertex="1" parent="1">
          <mxGeometry x="342.5" y="455" width="110" height="30" as="geometry" />
        </mxCell>
        <mxCell id="i-MgTbN1lz1c-PTe-RDw-34" value="Pustakawan" style="shape=umlActor;verticalLabelPosition=bottom;verticalAlign=top;html=1;outlineConnect=0;" vertex="1" parent="1">
          <mxGeometry x="710" y="200" width="60" height="130" as="geometry" />
        </mxCell>
        <mxCell id="i-MgTbN1lz1c-PTe-RDw-35" value="" style="endArrow=none;html=1;rounded=0;entryX=0;entryY=0.5;entryDx=0;entryDy=0;" edge="1" parent="1" target="i-MgTbN1lz1c-PTe-RDw-6">
          <mxGeometry width="50" height="50" relative="1" as="geometry">
            <mxPoint x="117.5" y="240" as="sourcePoint" />
            <mxPoint x="335" y="177.5" as="targetPoint" />
            <Array as="points">
              <mxPoint x="167.5" y="170" />
            </Array>
          </mxGeometry>
        </mxCell>
        <mxCell id="i-MgTbN1lz1c-PTe-RDw-39" value="" style="endArrow=none;html=1;rounded=0;entryX=-0.017;entryY=0.413;entryDx=0;entryDy=0;entryPerimeter=0;" edge="1" parent="1" target="i-MgTbN1lz1c-PTe-RDw-12">
          <mxGeometry width="50" height="50" relative="1" as="geometry">
            <mxPoint x="130" y="260" as="sourcePoint" />
            <mxPoint x="450" y="280" as="targetPoint" />
            <Array as="points">
              <mxPoint x="110" y="260" />
              <mxPoint x="130" y="260" />
            </Array>
          </mxGeometry>
        </mxCell>
        <mxCell id="i-MgTbN1lz1c-PTe-RDw-46" value="" style="endArrow=none;html=1;rounded=0;entryX=0;entryY=0.5;entryDx=0;entryDy=0;" edge="1" parent="1" target="i-MgTbN1lz1c-PTe-RDw-13">
          <mxGeometry width="50" height="50" relative="1" as="geometry">
            <mxPoint x="120" y="290" as="sourcePoint" />
            <mxPoint x="290" y="290" as="targetPoint" />
            <Array as="points">
              <mxPoint x="120" y="290" />
              <mxPoint x="250" y="350" />
            </Array>
          </mxGeometry>
        </mxCell>
        <mxCell id="i-MgTbN1lz1c-PTe-RDw-47" value="" style="endArrow=none;html=1;rounded=0;exitX=1;exitY=0.25;exitDx=0;exitDy=0;" edge="1" parent="1" source="i-MgTbN1lz1c-PTe-RDw-7">
          <mxGeometry width="50" height="50" relative="1" as="geometry">
            <mxPoint x="457.5" y="172.5" as="sourcePoint" />
            <mxPoint x="700" y="240" as="targetPoint" />
            <Array as="points">
              <mxPoint x="615" y="160" />
            </Array>
          </mxGeometry>
        </mxCell>
        <mxCell id="i-MgTbN1lz1c-PTe-RDw-49" value="" style="endArrow=none;html=1;rounded=0;" edge="1" parent="1" target="i-MgTbN1lz1c-PTe-RDw-12">
          <mxGeometry width="50" height="50" relative="1" as="geometry">
            <mxPoint x="700" y="280" as="sourcePoint" />
            <mxPoint x="450" y="280" as="targetPoint" />
            <Array as="points" />
          </mxGeometry>
        </mxCell>
        <mxCell id="i-MgTbN1lz1c-PTe-RDw-50" value="" style="endArrow=none;html=1;rounded=0;" edge="1" parent="1">
          <mxGeometry width="50" height="50" relative="1" as="geometry">
            <mxPoint x="460" y="370" as="sourcePoint" />
            <mxPoint x="690" y="300" as="targetPoint" />
            <Array as="points">
              <mxPoint x="460" y="370" />
              <mxPoint x="690" y="300" />
            </Array>
          </mxGeometry>
        </mxCell>
        <mxCell id="i-MgTbN1lz1c-PTe-RDw-51" value="" style="endArrow=none;html=1;rounded=0;exitX=1;exitY=0;exitDx=0;exitDy=0;" edge="1" parent="1" source="i-MgTbN1lz1c-PTe-RDw-30">
          <mxGeometry width="50" height="50" relative="1" as="geometry">
            <mxPoint x="400" y="330" as="sourcePoint" />
            <mxPoint x="700" y="320" as="targetPoint" />
            <Array as="points">
              <mxPoint x="700" y="320" />
            </Array>
          </mxGeometry>
        </mxCell>
      </root>
    </mxGraphModel>
  </diagram>
</mxfile>
